<svg version="1.1" id="Layer_1" xmlns="http://www.w3.org/2000/svg" x="0" y="0" viewBox="0 0 60 80" style="enable-background:new 0 0 60 80" xml:space="preserve"><style>.st0{fill:#e9e0df}.st1{fill:#fff}</style><path class="st0" d="M60 23.3H36.7V0z"/><path class="st0" d="M36.4 27.9H60v45.5c0 3.7-3 6.7-6.7 6.7H6.7C3 80 0 77 0 73.3V6.7C0 3 3 0 6.7 0h25.5v23.7c0 2.3 1.9 4.2 4.2 4.2z"/><path class="st1" d="M42.8 68.3H17.2c-1.3 0-2.3-1-2.3-2.3 0-1.3 1-2.3 2.3-2.3h25.6c1.3 0 2.3 1 2.3 2.3-.1 1.3-1.1 2.3-2.3 2.3zM40 50.8l-8 8c-.6.6-1.5 1-2.3 1-.9 0-1.7-.3-2.3-1l-8-8c-.9-.9-.9-2.3 0-3.2.9-.9 2.3-.9 3.2 0l4.9 4.8V35.2c0-1.3 1-2.3 2.3-2.3.6 0 1.2.2 1.6.7.4.4.7 1 .7 1.6v17.4l4.9-4.9c.9-.9 2.3-.9 3.2 0 .7.8.7 2.3-.2 3.1z"/></svg>
