<?xml version="1.0" encoding="utf-8"?>
<svg viewBox="0 0 30.4 30.4" xmlns="http://www.w3.org/2000/svg"><path fill="#000000" d="m22 16.9c-1.3-5.3-7.7-3.7-9.1 0.8-2.5-5-10.4-4-10.4 1.9 0.5 3.8 4.4 5.5 7.3 7.3 1.5 0.9 2.9 1.8 4.3 2.8 0.5 0.4 1.6 0.9 1.7-0.1 0.5-4.9 7-7.4 6.2-12.7zm-16 5.3v0.4c-0.4-0.3-0.7-0.6-1-1 0.4-0.4 0.7-0.9 1.1-1.3-0.2 0.3-0.4 0.6-0.5 1-0.2 0.5 0.3 1 0.7 0.5-0.1 0.1-0.2 0.3-0.3 0.4zm-1.6-1.4c-0.1-0.2-0.2-0.4-0.3-0.7 0.7-0.6 1.5-1.2 2.2-1.8-0.6 0.8-1.3 1.6-1.9 2.5zm-0.3-2.2c0.3-1.2 1.3-2 2.3-2.4-0.7 0.8-1.6 1.5-2.3 2.4zm12.4-3.5c0.3-0.1 0.6-0.2 0.8-0.2-0.2 0.2-0.5 0.4-0.7 0.5h-0.1c-0.1-0.1-0.2-0.1-0.4-0.1 0.2-0.1 0.3-0.1 0.4-0.2zm-2.7 3.4v-0.1c0.2-0.1 0.4-0.2 0.6-0.4-0.2 0.2-0.4 0.5-0.6 0.7v-0.2zm-1.3 0v0c0 0.1-0.1 0.2-0.1 0.2 0-0.1 0.1-0.1 0.1-0.2zm-0.8-1v0c0 0.1-0.1 0.2-0.2 0.2 0-0.1 0.1-0.2 0.2-0.2zm-4-1.6v0c0.1-0.1 0.2-0.1 0.3-0.1-0.2 0.1-0.3 0.3-0.5 0.4 0.1-0.1 0.2-0.2 0.2-0.3zm2.1 0.5c0.1-0.1 0.1-0.2 0.1-0.3 0.2 0.1 0.3 0.1 0.4 0.2-1 1.1-1.9 2.2-2.7 3.4h-0.1c0.8-1.1 1.6-2.1 2.3-3.3zm-2.8 7c-0.1-0.1-0.2-0.1-0.3-0.2l3.6-3.3c-0.9 1.3-2.4 2.2-3.3 3.5zm1.6 0.6c-0.1 0.1-0.1 0.2-0.1 0.3l-0.6-0.3c1.3-1 2-2.4 3.4-3.3-0.8 1.1-1.7 2.2-2.7 3.3zm2.6 1.8-0.6-0.3c1.6-1.4 3.3-2.7 4.9-4.1-1.5 1.4-3.2 2.6-4.3 4.4zm1.3 0.8c-0.2-0.1-0.4-0.2-0.6-0.4 1.3-1.6 3-2.9 4.6-4.3-1.3 1.6-2.8 3-4 4.7zm3.2-0.5c0-0.1 0.1-0.2 0.1-0.2 0 0.1 0 0.1-0.1 0.2zm-2.1 1.2c-0.1-0.1-0.2-0.1-0.2-0.2 1.1-1.5 2.3-2.8 3.8-3.8-1.3 1.3-2.6 2.5-3.6 4zm3.3-10.1-1.5 1.2c1.1-1.2 2.3-2.2 3.3-3.4 0.3 0.1 0.5 0.2 0.8 0.3-0.9 0.4-1.7 1.4-2.6 1.9zm2.9-1.1c0.1-0.1 0.1-0.3 0.1-0.4 0.2 0.2 0.3 0.4 0.4 0.6-0.8-0.2-1.1 1-1.7 1.3 0.4-0.6 0.8-1 1.2-1.5zm-0.2 4.5c0 0.1-0.1 0.1-0.1 0.2-0.3-0.1-0.6 0.3-0.9 0.4 0.5-0.5 1-1.1 1.5-1.6-0.1 0.3-0.3 0.7-0.5 1zm1-2.9c-0.5 0.4-0.9 0.7-1.4 1.1 0.5-0.6 1.2-1.2 1.3-2 0.1 0.2 0.1 0.5 0.1 0.9z"/></svg>
